{"title":"Blade 1998 720p BDRip x264 AC3-FWOLF","uid":9652514,"size":2381007940,"categoryP":"video","categoryS":"hd___movies","magnet":"?xt=urn:btih:f789771cc2db894583ec3c87c88e950a38211e1e&amp;dn=Blade+1998+720p+BDRip+x264+AC3-FWOLF&amp;tr=udp%3A%2F%2Ftracker.openbittorrent.com%3A80&amp;tr=udp%3A%2F%2Fopen.demonii.com%3A1337&amp;tr=udp%3A%2F%2Ftracker.coppersurfer.tk%3A6969&amp;tr=udp%3A%2F%2Fexodus.desync.com%3A6969","seeders":1,"leechers":0,"uploader":"sakhslitsa","files":7,"time":1393120490,"description":" &lt;a href=&quot;http://www.imdb.com/title/tt0120611/&quot; rel=&quot;nofollow&quot; target=&quot;_NEW&quot;&gt;http://www.imdb.com/title/tt0120611/&lt;/a&gt;\n\n\n\nFormat : Matroska\nFormat version : Version 2\nFile size : 2.18 GiB\nDuration : 2h 0mn\nOverall bit rate : 2 600 Kbps\nEncoded date : UTC 2014-02-21 13:50:03\nWriting application : mkvmerge v6.5.0 ('Isn't she lovely') built on Oct 20 2013 12:50:05\nWriting library : libebml v1.3.0 + libmatroska v1.4.1\n\nVideo\nID : 1\nFormat : AVC\nFormat/Info : Advanced Video Codec\nFormat profile : &lt;a class=&quot;__cf_email__&quot; href=&quot;/cdn-cgi/l/email-protection&quot; data-cfemail=&quot;337b5a545b737f071d02&quot;&gt;[email&amp;#160;protected]&lt;/a&gt;&lt;script cf-hash='f9e31' type=&quot;text/javascript&quot;&gt;\n/* &lt;![CDATA[ */!function(){try{var t=&quot;currentScript&quot;in document?document.currentScript:function(){for(var t=document.getElementsByTagName(&quot;script&quot;),e=t.length;e--;)if(t[e].getAttribute(&quot;cf-hash&quot;))return t[e]}();if(t&amp;&amp;t.previousSibling){var e,r,n,i,c=t.previousSibling,a=c.getAttribute(&quot;data-cfemail&quot;);if(a){for(e=&quot;&quot;,r=parseInt(a.substr(0,2),16),n=2;a.length-n;n+=2)i=parseInt(a.substr(n,2),16)^r,e+=String.fromCharCode(i);e=document.createTextNode(e),c.parentNode.replaceChild(e,c)}}}catch(u){}}();/* ]]&gt; */&lt;/script&gt;\nFormat settings, CABAC : Yes\nFormat settings, ReFrames : 8 frames\nCodec ID : V_MPEG4/ISO/AVC\nDuration : 2h 0mn\nBit rate : 2 152 Kbps\nWidth : 1 280 pixels\nHeight : 536 pixels\nDisplay aspect ratio : 2.40:1\nFrame rate mode : Constant\nFrame rate : 23.976 fps\nColor space : YUV\nChroma subsampling : 4:2:0\nBit depth : 8 bits\nScan type : Progressive\nBits/(Pixel*Frame) : 0.131\nStream size : 1.76 GiB (81%)\nWriting library : x264 core 138 r2358 9e941d1\nLanguage : English\nDefault : Yes\nForced : No\n\nAudio\nID : 2\nFormat : AC-3\nFormat/Info : Audio Coding 3\nMode extension : CM (complete main)\nFormat settings, Endianness : Big\nCodec ID : A_AC3\nDuration : 2h 0mn\nBit rate mode : Constant\nBit rate : 448 Kbps\nChannel(s) : 6 channels\nChannel positions : Front: L C R, Side: L R, LFE\nSampling rate : 48.0 KHz\nBit depth : 16 bits\nCompression mode : Lossy\nStream size : 385 MiB (17%)\nLanguage : English\nDefault : Yes\nForced : No\n\nMenu\n00:00:00.000 : en:00:00:00.000\n00:02:04.333 : en:00:02:04.333\n00:03:06.228 : en:00:03:06.228\n00:06:49.534 : en:00:06:49.534\n00:09:49.547 : en:00:09:49.547\n00:11:00.618 : en:00:11:00.618\n00:13:47.201 : en:00:13:47.201\n00:16:58.059 : en:00:16:58.059\n00:19:33.339 : en:00:19:33.339\n00:22:50.452 : en:00:22:50.452\n00:23:44.798 : en:00:23:44.798\n00:27:28.063 : en:00:27:28.063\n00:31:04.404 : en:00:31:04.404\n00:33:02.814 : en:00:33:02.814\n00:35:01.599 : en:00:35:01.599\n00:39:19.983 : en:00:39:19.983\n00:41:47.255 : en:00:41:47.255\n00:44:31.627 : en:00:44:31.627\n00:47:35.144 : en:00:47:35.144\n00:50:10.966 : en:00:50:10.966\n00:54:01.363 : en:00:54:01.363\n00:57:10.093 : en:00:57:10.093\n00:58:08.485 : en:00:58:08.485\n01:01:33.064 : en:01:01:33.064\n01:05:21.626 : en:01:05:21.626\n01:08:59.552 : en:01:08:59.552\n01:12:45.653 : en:01:12:45.653\n01:14:50.778 : en:01:14:50.778\n01:19:15.459 : en:01:19:15.459\n01:22:38.996 : en:01:22:38.996\n01:25:00.345 : en:01:25:00.345\n01:27:56.980 : en:01:27:56.980\n01:31:32.946 : en:01:31:32.946\n01:34:34.878 : en:01:34:34.878\n01:37:00.440 : en:01:37:00.440\n01:40:33.444 : en:01:40:33.444\n01:54:02.836 : en:01:54:02.836\n01:55:13.490 : en:01:55:13.490\n\n\nEncoded....FWOLF\n\nSource....Blu-ray.CEE.1080p.AVC.DTS-HD.MA.6.1-(Thanks!)\n\nSample....Yes\n\nSubs....(srt) ...English,Greek\n\n\nGreetz To: PsiX | Blacksheep | CFR | tomcat-12...\n....and all P2P Encoders and Groups....","torrent":{"xt":"urn:btih:f789771cc2db894583ec3c87c88e950a38211e1e","amp;dn":"Blade+1998+720p+BDRip+x264+AC3-FWOLF","amp;tr":["udp%3A%2F%2Ftracker.openbittorrent.com%3A80","udp%3A%2F%2Fopen.demonii.com%3A1337","udp%3A%2F%2Ftracker.coppersurfer.tk%3A6969","udp%3A%2F%2Fexodus.desync.com%3A6969"],"infoHash":"f789771cc2db894583ec3c87c88e950a38211e1e","infoHashBuffer":{"type":"Buffer","data":[247,137,119,28,194,219,137,69,131,236,60,135,200,142,149,10,56,33,30,30]},"announce":[],"urlList":[]}}